<?xml version="1.0" encoding="utf-8"?>
<!-- Generator: Adobe Illustrator 21.0.0, SVG Export Plug-In . SVG Version: 6.00 Build 0)  -->
<svg version="1.1" id="Layer_1" xmlns="http://www.w3.org/2000/svg" xmlns:xlink="http://www.w3.org/1999/xlink" x="0px" y="0px"
	 viewBox="0 0 26 24" style="enable-background:new 0 0 26 24;" xml:space="preserve">
<style type="text/css">
	.st0{fill:#FFFFFF;}
</style>
<g>
	<path class="st0" d="M24.6,9.2c-0.1,0-0.3,0-0.4-0.1c-0.4-0.2-0.5-0.7-0.3-1c0.4-0.6,0.6-1.3,0.6-2c-0.4,0.1-0.9,0.1-1.3,0.1
		C20.9,6,19.3,4,19.4,1.8c0-0.1,0-0.1,0-0.2c-1.1,0.2-2.1,0.8-2.8,1.8c-0.2,0.3-0.7,0.4-1,0.2c-0.3-0.2-0.4-0.7-0.2-1
		C16.5,0.9,18.3,0,20.2,0c0.1,0,0.2,0,0.2,0c0.2,0,0.5,0.2,0.6,0.4c0.1,0.2,0.2,0.5,0.1,0.7C21,1.4,21,1.6,20.9,1.9
		c-0.1,1.4,1,2.7,2.4,2.8c0.5,0,1-0.1,1.5-0.3c0.2-0.1,0.5-0.1,0.7,0s0.4,0.3,0.4,0.6c0,0.3,0.1,0.6,0.1,1c0,1.1-0.3,2.1-0.8,3
		C25.1,9.1,24.8,9.2,24.6,9.2z"/>
	<path class="st0" d="M17.7,18.9c-0.4,0-0.8-0.3-0.8-0.8s0.3-0.8,0.8-0.8c2.6,0,4.8-2.1,4.8-4.8s-2.1-4.8-4.8-4.8
		c-0.5,0-1,0.1-1.5,0.3c-0.2,0.1-0.4,0-0.6-0.1c-0.2-0.1-0.3-0.3-0.4-0.5c-0.5-2.1-2.4-3.6-4.6-3.6c-2.6,0-4.8,2.2-4.8,4.8
		c0,0.7,0.1,1.3,0.4,1.9c0.1,0.3,0.1,0.6-0.1,0.8c-0.2,0.2-0.5,0.3-0.8,0.2c-0.3-0.1-0.6-0.1-0.8-0.1c-1.6,0-2.9,1.3-2.9,2.9
		s1.3,2.9,2.9,2.9c0.4,0,0.8,0.3,0.8,0.8s-0.3,0.8-0.8,0.8c-2.4,0-4.4-2-4.4-4.4c0-2.4,2-4.4,4.4-4.4C4.3,9.6,4.3,9.2,4.3,8.7
		c0-3.5,2.8-6.3,6.3-6.3c2.6,0,5,1.6,5.9,4.1c0.4-0.1,0.9-0.1,1.3-0.1c3.5,0,6.3,2.8,6.3,6.3S21.2,18.9,17.7,18.9z"/>
	<path class="st0" d="M14.2,24c-0.4,0-0.8-0.3-0.8-0.8v-1.8c0-0.4,0.3-0.8,0.8-0.8s0.8,0.3,0.8,0.8v1.8C14.9,23.7,14.6,24,14.2,24z"
		/>
	<path class="st0" d="M11,22.7c-0.4,0-0.8-0.3-0.8-0.8v-1.8c0-0.4,0.3-0.8,0.8-0.8s0.8,0.3,0.8,0.8V22C11.8,22.4,11.5,22.7,11,22.7z
		"/>
	<path class="st0" d="M7.9,24c-0.4,0-0.8-0.3-0.8-0.8v-1.8c0-0.4,0.3-0.8,0.8-0.8s0.8,0.3,0.8,0.8v1.8C8.6,23.7,8.3,24,7.9,24z"/>
	<path class="st0" d="M14.2,19.2c-0.4,0-0.8-0.3-0.8-0.8v-1.8c0-0.4,0.3-0.8,0.8-0.8s0.8,0.3,0.8,0.8v1.8
		C14.9,18.9,14.6,19.2,14.2,19.2z"/>
	<path class="st0" d="M11,17.9c-0.4,0-0.8-0.3-0.8-0.8v-1.8c0-0.4,0.3-0.8,0.8-0.8s0.8,0.3,0.8,0.8v1.8C11.8,17.6,11.5,17.9,11,17.9
		z"/>
	<path class="st0" d="M7.9,19.2c-0.4,0-0.8-0.3-0.8-0.8v-1.8c0-0.4,0.3-0.8,0.8-0.8s0.8,0.3,0.8,0.8v1.8C8.6,18.9,8.3,19.2,7.9,19.2
		z"/>
</g>
</svg>
