<?xml version="1.0" encoding="utf-8"?>
<!-- Generator: Adobe Illustrator 21.0.0, SVG Export Plug-In . SVG Version: 6.00 Build 0)  -->
<svg version="1.1" id="Layer_1" xmlns="http://www.w3.org/2000/svg" xmlns:xlink="http://www.w3.org/1999/xlink" x="0px" y="0px"
	 viewBox="0 0 31.1 29.1" style="enable-background:new 0 0 31.1 29.1;" xml:space="preserve">
<style type="text/css">
	.st0{fill:#FFFFFF;}
</style>
<g>
	<g>
		<path class="st0" d="M14.2,29.1c-0.4,0-0.8-0.3-0.8-0.8v-6.6c0-0.4,0.3-0.8,0.8-0.8s0.8,0.3,0.8,0.8v6.6
			C14.9,28.8,14.6,29.1,14.2,29.1z"/>
		<path class="st0" d="M11,27.8c-0.4,0-0.8-0.3-0.8-0.8v-6.6c0-0.4,0.3-0.8,0.8-0.8s0.8,0.3,0.8,0.8v6.6
			C11.8,27.5,11.5,27.8,11,27.8z"/>
		<path class="st0" d="M7.9,29.1c-0.4,0-0.8-0.3-0.8-0.8v-6.6c0-0.4,0.3-0.8,0.8-0.8s0.8,0.3,0.8,0.8v6.6
			C8.6,28.8,8.3,29.1,7.9,29.1z"/>
	</g>
	<g>
		<path class="st0" d="M24.6,14.3c-0.1,0-0.3,0-0.4-0.1c-0.4-0.2-0.5-0.7-0.3-1c0.4-0.7,0.6-1.4,0.6-2.2c0-2.4-1.9-4.3-4.3-4.3
			c-1.4,0-2.7,0.7-3.5,1.8c-0.2,0.3-0.7,0.4-1,0.2c-0.3-0.2-0.4-0.7-0.2-1c1.1-1.5,2.9-2.5,4.8-2.5c3.2,0,5.8,2.6,5.8,5.8
			c0,1.1-0.3,2.1-0.8,3C25.1,14.1,24.8,14.3,24.6,14.3z"/>
		<path class="st0" d="M14.2,5.7c-0.2,0-0.4-0.1-0.5-0.2l-1.2-1.2c-0.3-0.3-0.3-0.8,0-1.1s0.8-0.3,1.1,0l1.2,1.2
			c0.3,0.3,0.3,0.8,0,1.1C14.6,5.6,14.4,5.7,14.2,5.7z"/>
		<path class="st0" d="M27.4,18.9c-0.2,0-0.4-0.1-0.5-0.2l-1.2-1.2c-0.3-0.3-0.3-0.8,0-1.1s0.8-0.3,1.1,0l1.2,1.2
			c0.3,0.3,0.3,0.8,0,1.1C27.8,18.8,27.6,18.9,27.4,18.9z"/>
		<path class="st0" d="M30.4,11.7h-1.7c-0.4,0-0.8-0.3-0.8-0.8s0.3-0.8,0.8-0.8h1.7c0.4,0,0.8,0.3,0.8,0.8S30.8,11.7,30.4,11.7z"/>
		<path class="st0" d="M26.2,5.7c-0.2,0-0.4-0.1-0.5-0.2c-0.3-0.3-0.3-0.8,0-1.1l1.2-1.2c0.3-0.3,0.8-0.3,1.1,0s0.3,0.8,0,1.1
			l-1.2,1.2C26.6,5.6,26.4,5.7,26.2,5.7z"/>
		<path class="st0" d="M20.2,3.2c-0.4,0-0.8-0.3-0.8-0.8V0.8c0-0.4,0.3-0.8,0.8-0.8S21,0.3,21,0.8v1.7C21,2.9,20.6,3.2,20.2,3.2z"/>
	</g>
	<path class="st0" d="M17.7,24c-0.4,0-0.8-0.3-0.8-0.8s0.3-0.8,0.8-0.8c2.6,0,4.8-2.1,4.8-4.8s-2.1-4.8-4.8-4.8
		c-0.5,0-1,0.1-1.5,0.3c-0.2,0.1-0.4,0-0.6-0.1c-0.2-0.1-0.3-0.3-0.4-0.5C14.7,10.5,12.8,9,10.6,9c-2.6,0-4.8,2.2-4.8,4.8
		c0,0.7,0.1,1.3,0.4,1.9c0.1,0.3,0.1,0.6-0.1,0.8c-0.2,0.2-0.5,0.3-0.8,0.2c-0.3-0.1-0.6-0.1-0.8-0.1c-1.6,0-2.9,1.3-2.9,2.9
		s1.3,2.9,2.9,2.9c0.4,0,0.8,0.3,0.8,0.8S4.9,24,4.4,24C2,24,0,22,0,19.6c0-2.4,2-4.4,4.4-4.4c-0.1-0.4-0.1-0.9-0.1-1.3
		c0-3.5,2.8-6.3,6.3-6.3c2.6,0,5,1.6,5.9,4.1c0.4-0.1,0.9-0.1,1.3-0.1c3.5,0,6.3,2.8,6.3,6.3S21.2,24,17.7,24z"/>
</g>
</svg>
