<?xml version="1.0" encoding="utf-8"?>
<!-- Generator: Adobe Illustrator 21.0.0, SVG Export Plug-In . SVG Version: 6.00 Build 0)  -->
<svg version="1.1" id="Layer_1" xmlns="http://www.w3.org/2000/svg" xmlns:xlink="http://www.w3.org/1999/xlink" x="0px" y="0px"
	 viewBox="0 0 26 24.1" style="enable-background:new 0 0 26 24.1;" xml:space="preserve">
<style type="text/css">
	.st0{fill:#FFFFFF;}
</style>
<g>
	<g>
		<path class="st0" d="M7.9,24.1c-0.2,0-0.4-0.1-0.5-0.2c-0.1-0.1-0.2-0.3-0.2-0.5c0-0.2,0.1-0.4,0.2-0.5c0.3-0.3,0.8-0.3,1.1,0
			c0.1,0.1,0.2,0.3,0.2,0.5c0,0.2-0.1,0.4-0.2,0.5C8.3,24,8.1,24.1,7.9,24.1z"/>
		<path class="st0" d="M14.2,24.1c-0.2,0-0.4-0.1-0.5-0.2c-0.1-0.1-0.2-0.3-0.2-0.5c0-0.2,0.1-0.4,0.2-0.5c0.3-0.3,0.8-0.3,1.1,0
			c0.1,0.1,0.2,0.3,0.2,0.5c0,0.2-0.1,0.4-0.2,0.5C14.5,24.1,14.3,24.1,14.2,24.1z"/>
		<path class="st0" d="M7.9,21.1c-0.2,0-0.4-0.1-0.5-0.2s-0.2-0.3-0.2-0.5c0-0.2,0.1-0.4,0.2-0.5c0.3-0.3,0.8-0.3,1.1,0
			c0.1,0.1,0.2,0.3,0.2,0.5c0,0.2-0.1,0.4-0.2,0.5C8.3,21,8.1,21.1,7.9,21.1z"/>
		<path class="st0" d="M11,22.4c-0.2,0-0.4-0.1-0.5-0.2c-0.1-0.1-0.2-0.3-0.2-0.5c0-0.2,0.1-0.4,0.2-0.5c0.3-0.3,0.8-0.3,1.1,0
			c0.1,0.1,0.2,0.3,0.2,0.5c0,0.2-0.1,0.4-0.2,0.5C11.4,22.3,11.2,22.4,11,22.4z"/>
		<path class="st0" d="M14.2,21.1c-0.2,0-0.4-0.1-0.5-0.2c-0.1-0.1-0.2-0.3-0.2-0.5c0-0.2,0.1-0.4,0.2-0.5c0.3-0.3,0.8-0.3,1.1,0
			c0.1,0.1,0.2,0.3,0.2,0.5c0,0.2-0.1,0.4-0.2,0.5C14.6,21,14.4,21.1,14.2,21.1z"/>
		<path class="st0" d="M7.9,18.1c-0.2,0-0.4-0.1-0.5-0.2c-0.1-0.1-0.2-0.3-0.2-0.5c0-0.2,0.1-0.4,0.2-0.5c0.3-0.3,0.8-0.3,1.1,0
			c0.1,0.1,0.2,0.3,0.2,0.5c0,0.2-0.1,0.4-0.2,0.5C8.3,18,8.1,18.1,7.9,18.1z"/>
		<path class="st0" d="M11.1,19.4c-0.2,0-0.4-0.1-0.5-0.2c-0.1-0.2-0.2-0.3-0.2-0.5s0.1-0.4,0.2-0.5c0.3-0.3,0.8-0.3,1.1,0
			c0.1,0.1,0.2,0.3,0.2,0.5s-0.1,0.4-0.2,0.5C11.4,19.3,11.2,19.4,11.1,19.4z"/>
		<path class="st0" d="M14.2,18.1c-0.2,0-0.4-0.1-0.5-0.2c-0.1-0.1-0.2-0.3-0.2-0.5c0-0.2,0.1-0.4,0.2-0.5c0.3-0.3,0.8-0.3,1.1,0
			c0.1,0.1,0.2,0.3,0.2,0.5c0,0.2-0.1,0.4-0.2,0.5C14.6,18.1,14.4,18.1,14.2,18.1z"/>
		<path class="st0" d="M11.1,16.4c-0.2,0-0.4-0.1-0.5-0.2c-0.1-0.1-0.2-0.3-0.2-0.5s0.1-0.4,0.2-0.5c0.3-0.3,0.8-0.3,1.1,0
			c0.1,0.1,0.2,0.3,0.2,0.5c0,0.2-0.1,0.4-0.2,0.5C11.5,16.3,11.3,16.4,11.1,16.4z"/>
	</g>
	<path class="st0" d="M24.6,9.2c-0.1,0-0.3,0-0.4-0.1c-0.4-0.2-0.5-0.7-0.3-1c0.4-0.6,0.6-1.3,0.6-2c-0.4,0.1-0.9,0.1-1.3,0.1
		c-1.1-0.1-2.1-0.6-2.8-1.4c-0.7-0.8-1.1-1.9-1-3c0-0.1,0-0.1,0-0.2c-1.1,0.2-2.1,0.8-2.8,1.8c-0.2,0.3-0.7,0.4-1,0.2
		c-0.3-0.2-0.4-0.7-0.2-1C16.5,0.9,18.3,0,20.2,0c0.1,0,0.2,0,0.2,0c0.2,0,0.5,0.1,0.6,0.4c0.1,0.2,0.2,0.5,0.1,0.7
		C21,1.4,21,1.6,20.9,1.9c-0.1,0.7,0.2,1.4,0.6,1.9c0.5,0.5,1.1,0.8,1.8,0.9c0.5,0,1-0.1,1.5-0.3c0.2-0.1,0.5-0.1,0.7,0
		c0.2,0.1,0.4,0.3,0.4,0.6c0,0.3,0.1,0.6,0.1,1c0,1.1-0.3,2.1-0.8,3C25.1,9.1,24.8,9.2,24.6,9.2z"/>
	<path class="st0" d="M17.7,18.9c-0.4,0-0.8-0.3-0.8-0.8s0.3-0.8,0.8-0.8c2.6,0,4.8-2.1,4.8-4.8s-2.1-4.8-4.8-4.8
		c-0.5,0-1,0.1-1.5,0.3c-0.2,0.1-0.4,0.1-0.6-0.1c-0.2-0.1-0.3-0.3-0.4-0.5c-0.5-2.1-2.4-3.6-4.6-3.6c-2.6,0-4.8,2.1-4.8,4.8
		c0,0.7,0.1,1.3,0.4,1.9c0.1,0.3,0.1,0.6-0.1,0.8c-0.2,0.2-0.5,0.3-0.8,0.2c-0.3-0.1-0.6-0.1-0.8-0.1c-1.6,0-2.9,1.3-2.9,2.9
		c0,1.6,1.3,2.9,2.9,2.9c0.4,0,0.8,0.3,0.8,0.8s-0.3,0.8-0.8,0.8c-2.4,0-4.4-2-4.4-4.4c0-2.4,2-4.4,4.4-4.4C4.3,9.6,4.3,9.2,4.3,8.7
		c0-3.5,2.8-6.3,6.3-6.3c2.6,0,5,1.6,5.9,4.1c0.4-0.1,0.9-0.1,1.3-0.1c3.5,0,6.3,2.8,6.3,6.3S21.2,18.9,17.7,18.9z"/>
</g>
</svg>
