<?xml version="1.0" encoding="utf-8"?>
<!-- Generator: Adobe Illustrator 21.0.0, SVG Export Plug-In . SVG Version: 6.00 Build 0)  -->
<svg version="1.1" id="Layer_1" xmlns="http://www.w3.org/2000/svg" xmlns:xlink="http://www.w3.org/1999/xlink" x="0px" y="0px"
	 viewBox="0 0 31.4 26.6" style="enable-background:new 0 0 31.4 26.6;" xml:space="preserve">
<style type="text/css">
	.st0{fill:#FFFFFF;}
</style>
<g>
	<path class="st0" d="M20.5,5.1c-1.9,0-3.7,0.9-4.8,2.5c-0.2,0.3-0.2,0.8,0.2,1c0.3,0.2,0.8,0.2,1-0.2c0.8-1.1,2.1-1.8,3.5-1.8
		c2.4,0,4.3,1.9,4.3,4.3c0,0.8-0.2,1.5-0.6,2.2c-0.2,0.4-0.1,0.8,0.3,1c0.1,0.1,0.3,0.1,0.4,0.1c0.3,0,0.5-0.1,0.6-0.4
		c0.5-0.9,0.8-1.9,0.8-3C26.3,7.7,23.7,5.1,20.5,5.1z"/>
	<path class="st0" d="M13.9,5.5c0.1,0.1,0.3,0.2,0.5,0.2s0.4-0.1,0.5-0.2c0.3-0.3,0.3-0.8,0-1.1l-1.2-1.2c-0.3-0.3-0.8-0.3-1.1,0
		s-0.3,0.8,0,1.1L13.9,5.5z"/>
	<path class="st0" d="M27,16.4c-0.3-0.3-0.8-0.3-1.1,0s-0.3,0.8,0,1.1l1.2,1.2c0.1,0.1,0.3,0.2,0.5,0.2s0.4-0.1,0.5-0.2
		c0.3-0.3,0.3-0.8,0-1.1L27,16.4z"/>
	<path class="st0" d="M30.6,10.2h-1.7c-0.4,0-0.8,0.3-0.8,0.8s0.3,0.8,0.8,0.8h1.7c0.4,0,0.8-0.3,0.8-0.8S31,10.2,30.6,10.2z"/>
	<path class="st0" d="M26.5,5.7c0.2,0,0.4-0.1,0.5-0.2l1.2-1.2c0.3-0.3,0.3-0.8,0-1.1s-0.8-0.3-1.1,0l-1.2,1.2
		c-0.3,0.3-0.3,0.8,0,1.1C26.1,5.6,26.3,5.7,26.5,5.7z"/>
	<path class="st0" d="M20.5,3.2c0.4,0,0.8-0.3,0.8-0.8V0.8c0-0.4-0.3-0.8-0.8-0.8s-0.8,0.3-0.8,0.8v1.7C19.7,2.9,20,3.2,20.5,3.2z"
		/>
	<path class="st0" d="M23.6,22.1H8.1c-0.4,0-0.8,0.3-0.8,0.8s0.3,0.8,0.8,0.8h15.5c0.4,0,0.8-0.3,0.8-0.8S24,22.1,23.6,22.1z"/>
	<path class="st0" d="M0.8,23.6h3.6c0.4,0,0.8-0.3,0.8-0.8s-0.3-0.8-0.8-0.8H0.8c-0.4,0-0.8,0.3-0.8,0.8S0.3,23.6,0.8,23.6z"/>
	<path class="st0" d="M23.6,19.1h-9.1c-0.4,0-0.8,0.3-0.8,0.8s0.3,0.8,0.8,0.8h9.1c0.4,0,0.8-0.3,0.8-0.8S24,19.1,23.6,19.1z"/>
	<path class="st0" d="M0.8,20.6h10c0.4,0,0.8-0.3,0.8-0.8s-0.3-0.8-0.8-0.8H1.6c0.3-1.3,1.5-2.3,2.9-2.3c0.3,0,0.5,0,0.9,0.1
		c0.3,0.1,0.6,0,0.8-0.2c0.2-0.2,0.2-0.5,0.1-0.8c-0.3-0.6-0.4-1.3-0.4-2c0-2.7,2.2-4.9,4.9-4.9c2.2,0,4.2,1.5,4.7,3.7
		c0.1,0.2,0.2,0.4,0.4,0.5s0.4,0.1,0.6,0.1c0.5-0.2,1.1-0.3,1.6-0.3c2.4,0,4.4,1.7,4.8,4c0.1,0.4,0.5,0.7,0.9,0.6
		c0.4-0.1,0.7-0.5,0.6-0.9c-0.5-3.1-3.2-5.3-6.3-5.3c-0.4,0-0.9,0-1.3,0.1c-0.9-2.5-3.3-4.1-6-4.1c-3.5,0-6.4,2.9-6.4,6.4
		c0,0.5,0,0.9,0.1,1.4c-2.5,0-4.5,2-4.5,4.5C0,20.3,0.3,20.6,0.8,20.6z"/>
	<path class="st0" d="M23.6,25.1h-4.7c-0.4,0-0.8,0.3-0.8,0.8s0.3,0.8,0.8,0.8h4.7c0.4,0,0.8-0.3,0.8-0.8S24,25.1,23.6,25.1z"/>
	<path class="st0" d="M14.6,25.1H0.8c-0.4,0-0.8,0.3-0.8,0.8s0.3,0.8,0.8,0.8h13.8c0.4,0,0.8-0.3,0.8-0.8S15,25.1,14.6,25.1z"/>
</g>
</svg>
