<?xml version="1.0" encoding="utf-8"?>
<!-- Generator: Adobe Illustrator 21.0.0, SVG Export Plug-In . SVG Version: 6.00 Build 0)  -->
<svg version="1.1" id="Layer_1" xmlns="http://www.w3.org/2000/svg" xmlns:xlink="http://www.w3.org/1999/xlink" x="0px" y="0px"
	 viewBox="0 0 26.3 21.5" style="enable-background:new 0 0 26.3 21.5;" xml:space="preserve">
<style type="text/css">
	.st0{fill:#FFFFFF;}
</style>
<g>
	<path class="st0" d="M26.2,4.8c0-0.2-0.2-0.4-0.4-0.6s-0.5-0.1-0.7,0c-0.5,0.3-1,0.4-1.5,0.3c-0.7-0.1-1.3-0.4-1.8-0.9
		c-0.5-0.5-0.7-1.2-0.6-1.9c0-0.3,0.1-0.5,0.2-0.8c0.1-0.2,0-0.5-0.1-0.7S20.9,0.1,20.7,0c-0.1,0-0.2,0-0.2,0
		c-1.9,0-3.7,0.9-4.8,2.5c-0.2,0.3-0.2,0.8,0.2,1c0.3,0.2,0.8,0.2,1-0.2c0.7-0.9,1.7-1.6,2.8-1.8c0,0.1,0,0.1,0,0.2
		c-0.1,1.1,0.3,2.1,1,3c0.7,0.8,1.7,1.3,2.8,1.4c0.5,0,0.9,0,1.3-0.1c0,0.7-0.2,1.4-0.6,2c-0.2,0.4-0.1,0.8,0.3,1
		c0.1,0.1,0.3,0.1,0.4,0.1c0.3,0,0.5-0.1,0.6-0.4c0.5-0.9,0.8-1.9,0.8-3C26.3,5.5,26.2,5.1,26.2,4.8z"/>
	<path class="st0" d="M23.6,17H8.1c-0.4,0-0.8,0.3-0.8,0.8s0.3,0.8,0.8,0.8h15.5c0.4,0,0.8-0.3,0.8-0.8S24,17,23.6,17z"/>
	<path class="st0" d="M0.8,18.5h3.6c0.4,0,0.8-0.3,0.8-0.8S4.7,17,4.3,17H0.8C0.3,17,0,17.4,0,17.8S0.3,18.5,0.8,18.5z"/>
	<path class="st0" d="M23.6,14h-9.1c-0.4,0-0.8,0.3-0.8,0.8s0.3,0.8,0.8,0.8h9.1c0.4,0,0.8-0.3,0.8-0.8S24,14,23.6,14z"/>
	<path class="st0" d="M0.8,15.5h10c0.4,0,0.8-0.3,0.8-0.8S11.1,14,10.7,14H1.6c0.3-1.3,1.5-2.3,2.9-2.3c0.3,0,0.5,0,0.9,0.1
		c0.3,0.1,0.6,0,0.8-0.2s0.2-0.5,0.1-0.8c-0.3-0.6-0.4-1.3-0.4-2C5.8,6.2,8,4,10.7,4c2.2,0,4.2,1.5,4.7,3.7c0.1,0.2,0.2,0.4,0.4,0.5
		s0.4,0.1,0.6,0.1C16.9,8.1,17.5,8,18,8c2.4,0,4.4,1.7,4.8,4c0.1,0.4,0.5,0.7,0.9,0.6c0.4-0.1,0.7-0.5,0.6-0.9
		c-0.5-3.1-3.2-5.3-6.3-5.3c-0.4,0-0.9,0-1.3,0.1c-0.9-2.5-3.3-4.1-6-4.1c-3.5,0-6.4,2.9-6.4,6.4c0,0.5,0,0.9,0.1,1.4
		c-2.5,0-4.5,2-4.5,4.5C0,15.2,0.3,15.5,0.8,15.5z"/>
	<path class="st0" d="M23.6,20h-4.7c-0.4,0-0.8,0.3-0.8,0.8s0.3,0.8,0.8,0.8h4.7c0.4,0,0.8-0.3,0.8-0.8S24,20,23.6,20z"/>
	<path class="st0" d="M14.6,20H0.8C0.3,20,0,20.4,0,20.8s0.3,0.8,0.8,0.8h13.8c0.4,0,0.8-0.3,0.8-0.8S15,20,14.6,20z"/>
</g>
</svg>
