<?xml version="1.0" encoding="utf-8"?>
<!-- Generator: Adobe Illustrator 21.0.0, SVG Export Plug-In . SVG Version: 6.00 Build 0)  -->
<svg version="1.1" id="Layer_1" xmlns="http://www.w3.org/2000/svg" xmlns:xlink="http://www.w3.org/1999/xlink" x="0px" y="0px"
	 viewBox="0 0 26.5 26.5" style="enable-background:new 0 0 26.5 26.5;" xml:space="preserve">
<style type="text/css">
	.st0{fill:#FFFFFF;}
</style>
<g>
	<path class="st0" d="M13.2,20.7c-4.1,0-7.4-3.3-7.4-7.4s3.3-7.4,7.4-7.4s7.4,3.3,7.4,7.4S17.4,20.7,13.2,20.7z M13.2,7.3
		c-3.3,0-5.9,2.7-5.9,5.9s2.7,5.9,5.9,5.9c3.3,0,5.9-2.7,5.9-5.9S16.5,7.3,13.2,7.3z"/>
	<g>
		<path class="st0" d="M5.7,6.4c-0.2,0-0.4-0.1-0.5-0.2L3.9,4.9c-0.3-0.3-0.3-0.8,0-1.1s0.8-0.3,1.1,0l1.3,1.3
			c0.3,0.3,0.3,0.8,0,1.1C6.1,6.4,5.9,6.4,5.7,6.4z"/>
		<path class="st0" d="M22.1,22.8c-0.2,0-0.4-0.1-0.5-0.2l-1.3-1.3c-0.3-0.3-0.3-0.8,0-1.1s0.8-0.3,1.1,0l1.3,1.3
			c0.3,0.3,0.3,0.8,0,1.1C22.5,22.8,22.3,22.8,22.1,22.8z"/>
	</g>
	<g>
		<path class="st0" d="M4.4,22.8c-0.2,0-0.4-0.1-0.5-0.2c-0.3-0.3-0.3-0.8,0-1.1l1.3-1.3c0.3-0.3,0.8-0.3,1.1,0s0.3,0.8,0,1.1
			l-1.3,1.3C4.8,22.8,4.6,22.8,4.4,22.8z"/>
		<path class="st0" d="M20.8,6.4c-0.2,0-0.4-0.1-0.5-0.2c-0.3-0.3-0.3-0.8,0-1.1l1.3-1.3c0.3-0.3,0.8-0.3,1.1,0s0.3,0.8,0,1.1
			l-1.3,1.3C21.2,6.4,21,6.4,20.8,6.4z"/>
	</g>
	<g>
		<path class="st0" d="M2.5,14H0.8C0.3,14,0,13.7,0,13.2s0.3-0.8,0.8-0.8h1.8c0.4,0,0.8,0.3,0.8,0.8S2.9,14,2.5,14z"/>
		<path class="st0" d="M25.8,14H24c-0.4,0-0.8-0.3-0.8-0.8s0.3-0.8,0.8-0.8h1.8c0.4,0,0.8,0.3,0.8,0.8S26.2,14,25.8,14z"/>
	</g>
	<g>
		<path class="st0" d="M13.2,26.5c-0.4,0-0.8-0.3-0.8-0.8V24c0-0.4,0.3-0.8,0.8-0.8S14,23.6,14,24v1.8C14,26.2,13.7,26.5,13.2,26.5z
			"/>
		<path class="st0" d="M13.2,3.3c-0.4,0-0.8-0.3-0.8-0.8V0.8c0-0.4,0.3-0.8,0.8-0.8S14,0.3,14,0.8v1.8C14,2.9,13.7,3.3,13.2,3.3z"/>
	</g>
</g>
</svg>
