<?xml version="1.0" encoding="utf-8"?>
<!-- Generator: Adobe Illustrator 21.0.0, SVG Export Plug-In . SVG Version: 6.00 Build 0)  -->
<svg version="1.1" id="Layer_1" xmlns="http://www.w3.org/2000/svg" xmlns:xlink="http://www.w3.org/1999/xlink" x="0px" y="0px"
	 viewBox="0 0 16.5 16.5" style="enable-background:new 0 0 16.5 16.5;" xml:space="preserve">
<style type="text/css">
	.st0{fill:#FFFFFF;}
</style>
<g>
	<path class="st0" d="M8.2,16.5C3.7,16.5,0,12.8,0,8.2S3.7,0,8.2,0c0.3,0,0.6,0,0.8,0c0.2,0,0.5,0.2,0.6,0.4c0.1,0.2,0.1,0.5,0,0.7
		C9.3,1.8,9.2,2.4,9.2,3.1c0,2.3,1.9,4.2,4.2,4.2c0.7,0,1.3-0.2,1.9-0.5c0.2-0.1,0.5-0.1,0.7,0c0.2,0.1,0.4,0.3,0.4,0.6
		c0,0.3,0,0.5,0,0.8C16.5,12.8,12.8,16.5,8.2,16.5z M7.9,1.5C4.3,1.7,1.5,4.6,1.5,8.2c0,3.7,3,6.8,6.8,6.8c3.6,0,6.6-2.8,6.7-6.4
		c-0.5,0.2-1,0.2-1.6,0.2c-3.2,0-5.8-2.6-5.8-5.8C7.7,2.6,7.7,2,7.9,1.5z"/>
</g>
</svg>
