<?xml version="1.0" encoding="utf-8"?>
<!-- Generator: Adobe Illustrator 21.0.0, SVG Export Plug-In . SVG Version: 6.00 Build 0)  -->
<svg version="1.1" id="Layer_1" xmlns="http://www.w3.org/2000/svg" xmlns:xlink="http://www.w3.org/1999/xlink" x="0px" y="0px"
	 viewBox="0 0 31.5 24.4" style="enable-background:new 0 0 31.5 24.4;" xml:space="preserve">
<style type="text/css">
	.st0{fill:#FFFFFF;}
</style>
<g>
	<path class="st0" d="M18,11.6c-0.4,0-0.9,0-1.3,0.1c-0.9-2.5-3.3-4.1-6-4.1c-3.5,0-6.4,2.9-6.4,6.4c0,0.5,0,0.9,0.1,1.4
		c-2.5,0-4.5,2-4.5,4.5c0,2.5,2,4.5,4.5,4.5H18c3.5,0,6.4-2.9,6.4-6.4S21.5,11.6,18,11.6z M18,22.9H4.5c-1.7,0-3-1.3-3-3s1.3-3,3-3
		c0.3,0,0.5,0,0.9,0.1c0.3,0.1,0.6,0,0.8-0.2c0.2-0.2,0.2-0.5,0.1-0.8c-0.3-0.6-0.4-1.3-0.4-2c0-2.7,2.2-4.9,4.9-4.9
		c2.2,0,4.2,1.5,4.7,3.7c0.1,0.2,0.2,0.4,0.4,0.5s0.4,0.1,0.6,0.1c0.5-0.2,1-0.3,1.6-0.3c2.7,0,4.9,2.2,4.9,4.9S20.7,22.9,18,22.9z"
		/>
	<path class="st0" d="M20.6,5.1c-1.9,0-3.7,0.9-4.8,2.5c-0.2,0.3-0.2,0.8,0.2,1c0.3,0.2,0.8,0.2,1-0.2c0.8-1.1,2.1-1.8,3.5-1.8
		c2.4,0,4.3,1.9,4.3,4.3c0,0.8-0.2,1.5-0.6,2.2c-0.2,0.4-0.1,0.8,0.3,1c0.1,0.1,0.3,0.1,0.4,0.1c0.3,0,0.5-0.1,0.6-0.4
		c0.5-0.9,0.8-1.9,0.8-3C26.4,7.7,23.8,5.1,20.6,5.1z"/>
	<path class="st0" d="M14.1,5.5c0.1,0.1,0.3,0.2,0.5,0.2s0.4-0.1,0.5-0.2c0.3-0.3,0.3-0.8,0-1.1l-1.2-1.2c-0.3-0.3-0.8-0.3-1.1,0
		s-0.3,0.8,0,1.1L14.1,5.5z"/>
	<path class="st0" d="M27.1,16.4c-0.3-0.3-0.8-0.3-1.1,0s-0.3,0.8,0,1.1l1.2,1.2c0.1,0.1,0.3,0.2,0.5,0.2s0.4-0.1,0.5-0.2
		c0.3-0.3,0.3-0.8,0-1.1L27.1,16.4z"/>
	<path class="st0" d="M30.8,10.2h-1.7c-0.4,0-0.8,0.3-0.8,0.8s0.3,0.8,0.8,0.8h1.7c0.4,0,0.8-0.3,0.8-0.8S31.2,10.2,30.8,10.2z"/>
	<path class="st0" d="M26.6,5.7c0.2,0,0.4-0.1,0.5-0.2l1.2-1.2c0.3-0.3,0.3-0.8,0-1.1s-0.8-0.3-1.1,0L26,4.4c-0.3,0.3-0.3,0.8,0,1.1
		C26.2,5.6,26.4,5.7,26.6,5.7z"/>
	<path class="st0" d="M20.6,3.2c0.4,0,0.8-0.3,0.8-0.8V0.8C21.3,0.3,21,0,20.6,0s-0.8,0.3-0.8,0.8v1.7C19.8,2.9,20.2,3.2,20.6,3.2z"
		/>
</g>
</svg>
