<?xml version="1.0" encoding="utf-8"?>
<!-- Generator: Adobe Illustrator 21.0.0, SVG Export Plug-In . SVG Version: 6.00 Build 0)  -->
<svg version="1.1" id="Layer_1" xmlns="http://www.w3.org/2000/svg" xmlns:xlink="http://www.w3.org/1999/xlink" x="0px" y="0px"
	 viewBox="0 0 26.4 19.3" style="enable-background:new 0 0 26.4 19.3;" xml:space="preserve">
<style type="text/css">
	.st0{fill:#FFFFFF;}
</style>
<g>
	<path class="st0" d="M18,6.5c-0.4,0-0.9,0-1.3,0.1c-0.9-2.5-3.3-4.1-6-4.1c-3.5,0-6.4,2.9-6.4,6.4c0,0.5,0,0.9,0.1,1.4
		c-2.5,0-4.5,2-4.5,4.5c0,2.5,2,4.5,4.5,4.5H18c3.5,0,6.4-2.9,6.4-6.4S21.5,6.5,18,6.5z M18,17.8H4.5c-1.7,0-3-1.3-3-3s1.3-3,3-3
		c0.3,0,0.5,0,0.9,0.1c0.3,0.1,0.6,0,0.8-0.2s0.2-0.5,0.1-0.8c-0.3-0.6-0.4-1.3-0.4-2C5.8,6.2,8,4,10.7,4c2.2,0,4.2,1.5,4.7,3.7
		c0.1,0.2,0.2,0.4,0.4,0.5c0.2,0.1,0.4,0.1,0.6,0.1C16.9,8.1,17.5,8,18,8c2.7,0,4.9,2.2,4.9,4.9S20.7,17.8,18,17.8z"/>
	<path class="st0" d="M26.3,4.8c0-0.2-0.2-0.4-0.4-0.6s-0.5-0.1-0.7,0c-0.5,0.3-1,0.4-1.5,0.3c-1.4-0.1-2.5-1.4-2.4-2.8
		c0-0.3,0.1-0.5,0.2-0.8c0.1-0.2,0-0.5-0.1-0.7c-0.1-0.2-0.4-0.3-0.6-0.4c-0.1,0-0.2,0-0.2,0c-1.9,0-3.7,0.9-4.8,2.5
		c-0.2,0.3-0.2,0.8,0.2,1s0.8,0.2,1-0.2c0.7-0.9,1.7-1.6,2.8-1.8c0,0.1,0,0.1,0,0.2C19.6,4,21.3,6,23.6,6.2c0.5,0,0.9,0,1.3-0.1
		c0,0.7-0.2,1.4-0.6,2c-0.2,0.4-0.1,0.8,0.3,1c0.1,0.1,0.3,0.1,0.4,0.1c0.3,0,0.5-0.1,0.6-0.4c0.5-0.9,0.8-1.9,0.8-3
		C26.4,5.5,26.4,5.1,26.3,4.8z"/>
</g>
</svg>
