<?xml version="1.0" encoding="utf-8"?>
<!-- Generator: Adobe Illustrator 21.0.0, SVG Export Plug-In . SVG Version: 6.00 Build 0)  -->
<svg version="1.1" id="Layer_1" xmlns="http://www.w3.org/2000/svg" xmlns:xlink="http://www.w3.org/1999/xlink" x="0px" y="0px"
	 viewBox="0 0 36.7 27.2" style="enable-background:new 0 0 36.7 27.2;" xml:space="preserve">
<style type="text/css">
	.st0{fill:#FFFFFF;}
</style>
<g>
	<g>
		<path class="st0" d="M30.2,14.3c-0.1,0-0.3,0-0.4-0.1c-0.4-0.2-0.5-0.7-0.3-1c0.4-0.7,0.6-1.4,0.6-2.2c0-2.4-1.9-4.3-4.3-4.3
			c-1.4,0-2.7,0.7-3.5,1.8c-0.2,0.3-0.7,0.4-1,0.2c-0.3-0.2-0.4-0.7-0.2-1c1.1-1.5,2.9-2.5,4.8-2.5c3.2,0,5.8,2.6,5.8,5.8
			c0,1.1-0.3,2.1-0.8,3C30.7,14.1,30.4,14.3,30.2,14.3z"/>
		<path class="st0" d="M19.8,5.7c-0.2,0-0.4-0.1-0.5-0.2l-1.2-1.2c-0.3-0.3-0.3-0.8,0-1.1c0.3-0.3,0.8-0.3,1.1,0l1.2,1.2
			c0.3,0.3,0.3,0.8,0,1.1C20.2,5.6,20,5.7,19.8,5.7z"/>
		<path class="st0" d="M33,18.9c-0.2,0-0.4-0.1-0.5-0.2l-1.2-1.2c-0.3-0.3-0.3-0.8,0-1.1s0.8-0.3,1.1,0l1.2,1.2
			c0.3,0.3,0.3,0.8,0,1.1C33.4,18.8,33.2,18.9,33,18.9z"/>
		<path class="st0" d="M36,11.7h-1.7c-0.4,0-0.8-0.3-0.8-0.8s0.3-0.8,0.8-0.8H36c0.4,0,0.8,0.3,0.8,0.8S36.4,11.7,36,11.7z"/>
		<path class="st0" d="M31.8,5.7c-0.2,0-0.4-0.1-0.5-0.2c-0.3-0.3-0.3-0.8,0-1.1l1.2-1.2c0.3-0.3,0.8-0.3,1.1,0s0.3,0.8,0,1.1
			l-1.2,1.2C32.2,5.6,32,5.7,31.8,5.7z"/>
		<path class="st0" d="M25.8,3.2c-0.4,0-0.8-0.3-0.8-0.8V0.8C25,0.3,25.4,0,25.8,0s0.8,0.3,0.8,0.8v1.7C26.5,2.9,26.2,3.2,25.8,3.2z
			"/>
	</g>
	<g>
		<path class="st0" d="M23.2,24.2h-5.7c-0.4,0-0.8-0.3-0.8-0.8s0.3-0.8,0.8-0.8h5.7c2.6,0,4.8-2.1,4.8-4.8s-2.1-4.8-4.8-4.8
			c-0.5,0-1,0.1-1.5,0.3c-0.2,0.1-0.4,0-0.6-0.1s-0.3-0.3-0.4-0.5c-0.5-2.1-2.4-3.6-4.6-3.6c-2.6,0-4.8,2.1-4.8,4.8
			c0,0.7,0.1,1.3,0.4,1.9c0.1,0.3,0.1,0.6-0.1,0.8c-0.2,0.2-0.5,0.3-0.8,0.2c-0.3-0.1-0.6-0.1-0.8-0.1c-1,0-2,0.5-2.5,1.4
			c-0.2,0.4-0.7,0.5-1,0.2c-0.4-0.2-0.5-0.7-0.2-1c0.8-1.3,2.2-2.1,3.8-2.1c-0.1-0.4-0.1-0.9-0.1-1.3c0-3.5,2.8-6.3,6.3-6.3
			c2.6,0,5,1.6,5.9,4.1c0.4-0.1,0.9-0.1,1.3-0.1c3.5,0,6.3,2.8,6.3,6.3S26.7,24.2,23.2,24.2z"/>
		<path class="st0" d="M12.2,27.2H4.8c-0.4,0-0.8-0.3-0.8-0.8s0.3-0.8,0.8-0.8h7.5c0.4,0,0.8,0.3,0.8,0.8S12.7,27.2,12.2,27.2z"/>
		<path class="st0" d="M17.2,21.2H2.8c-0.4,0-0.8-0.3-0.8-0.8s0.3-0.8,0.8-0.8h14.5c0.4,0,0.8,0.3,0.8,0.8S17.7,21.2,17.2,21.2z"/>
		<path class="st0" d="M14.2,24.2H0.8c-0.4,0-0.8-0.3-0.8-0.8s0.3-0.8,0.8-0.8h13.5c0.4,0,0.8,0.3,0.8,0.8S14.7,24.2,14.2,24.2z"/>
	</g>
</g>
</svg>
