<?xml version="1.0" encoding="utf-8"?>
<!-- Generator: Adobe Illustrator 21.0.0, SVG Export Plug-In . SVG Version: 6.00 Build 0)  -->
<svg version="1.1" id="Layer_1" xmlns="http://www.w3.org/2000/svg" xmlns:xlink="http://www.w3.org/1999/xlink" x="0px" y="0px"
	 viewBox="0 0 31.1 30.4" style="enable-background:new 0 0 31.1 30.4;" xml:space="preserve">
<style type="text/css">
	.st0{fill:#FFFFFF;}
</style>
<g>
	<path class="st0" d="M20.2,5.1c-1.9,0-3.7,0.9-4.8,2.5c-0.2,0.3-0.2,0.8,0.2,1c0.3,0.2,0.8,0.2,1-0.2c0.8-1.1,2.1-1.8,3.5-1.8
		c2.4,0,4.3,1.9,4.3,4.3c0,0.8-0.2,1.5-0.6,2.2c-0.2,0.4-0.1,0.8,0.3,1c0.1,0.1,0.3,0.1,0.4,0.1c0.3,0,0.5-0.1,0.6-0.4
		c0.5-0.9,0.8-1.9,0.8-3C26,7.7,23.4,5.1,20.2,5.1z"/>
	<path class="st0" d="M13.7,5.5c0.1,0.1,0.3,0.2,0.5,0.2s0.4-0.1,0.5-0.2c0.3-0.3,0.3-0.8,0-1.1l-1.2-1.2c-0.3-0.3-0.8-0.3-1.1,0
		s-0.3,0.8,0,1.1L13.7,5.5z"/>
	<path class="st0" d="M26.7,16.4c-0.3-0.3-0.8-0.3-1.1,0s-0.3,0.8,0,1.1l1.2,1.2c0.1,0.1,0.3,0.2,0.5,0.2s0.4-0.1,0.5-0.2
		c0.3-0.3,0.3-0.8,0-1.1L26.7,16.4z"/>
	<path class="st0" d="M30.4,10.2h-1.7c-0.4,0-0.8,0.3-0.8,0.8s0.3,0.8,0.8,0.8h1.7c0.4,0,0.8-0.3,0.8-0.8S30.8,10.2,30.4,10.2z"/>
	<path class="st0" d="M26.2,5.7c0.2,0,0.4-0.1,0.5-0.2l1.2-1.2c0.3-0.3,0.3-0.8,0-1.1s-0.8-0.3-1.1,0l-1.2,1.2
		c-0.3,0.3-0.3,0.8,0,1.1C25.8,5.6,26,5.7,26.2,5.7z"/>
	<path class="st0" d="M20.2,3.2c0.4,0,0.8-0.3,0.8-0.8V0.8C21,0.3,20.6,0,20.2,0s-0.8,0.3-0.8,0.8v1.7C19.5,2.9,19.8,3.2,20.2,3.2z"
		/>
	<path class="st0" d="M17.7,11.4c-0.4,0-0.9,0-1.3,0.1c-0.9-2.4-3.2-4.1-5.9-4.1c-3.5,0-6.3,2.8-6.3,6.3c0,0.4,0,0.9,0.1,1.3
		c-2.4,0-4.4,2-4.4,4.4C0,22,2,24,4.4,24c0.4,0,0.8-0.3,0.8-0.8s-0.3-0.8-0.8-0.8c-1.6,0-2.9-1.3-2.9-2.9c0-1.6,1.3-2.9,2.9-2.9
		c0.3,0,0.5,0,0.8,0.1c0.3,0.1,0.6,0,0.8-0.2c0.2-0.2,0.2-0.5,0.1-0.8c-0.3-0.6-0.4-1.3-0.4-1.9c0-2.6,2.1-4.8,4.8-4.8
		c2.2,0,4.1,1.5,4.6,3.6c0.1,0.2,0.2,0.4,0.4,0.5c0.2,0.1,0.4,0.1,0.6,0.1c0.5-0.2,1-0.3,1.5-0.3c2.6,0,4.8,2.1,4.8,4.8
		s-2.1,4.8-4.8,4.8c-0.4,0-0.8,0.3-0.8,0.8s0.3,0.8,0.8,0.8c3.5,0,6.3-2.8,6.3-6.3S21.2,11.4,17.7,11.4z"/>
	<path class="st0" d="M13.2,22.4H9.5l1.8-4.5c0.2-0.4,0-0.8-0.4-1c-0.4-0.2-0.8,0-1,0.4l-2.2,5.6c-0.1,0.2-0.1,0.5,0.1,0.7
		s0.4,0.3,0.6,0.3h3.7L10.6,28l-0.1-0.2c-0.2-0.3-0.7-0.5-1-0.2c-0.3,0.2-0.5,0.7-0.2,1l0.9,1.5c0,0,0,0,0,0
		c0.1,0.1,0.1,0.2,0.2,0.2c0,0,0,0,0,0c0.1,0.1,0.2,0.1,0.3,0.1l0,0h0h0h0c0,0,0.1,0,0.1,0c0.1,0,0.2,0,0.2-0.1c0,0,0,0,0,0l1.8-0.8
		c0.4-0.2,0.5-0.6,0.4-1c-0.2-0.4-0.6-0.5-1-0.4l-0.2,0.1l1.8-4.8c0.1-0.2,0.1-0.5-0.1-0.7C13.6,22.5,13.4,22.4,13.2,22.4z"/>
</g>
</svg>
