<?xml version="1.0" encoding="utf-8"?>
<!-- Generator: Adobe Illustrator 21.0.0, SVG Export Plug-In . SVG Version: 6.00 Build 0)  -->
<svg version="1.1" id="Layer_1" xmlns="http://www.w3.org/2000/svg" xmlns:xlink="http://www.w3.org/1999/xlink" x="0px" y="0px"
	 viewBox="0 0 26 25.3" style="enable-background:new 0 0 26 25.3;" xml:space="preserve">
<style type="text/css">
	.st0{fill:#FFFFFF;}
</style>
<g>
	<path class="st0" d="M25.9,4.8c0-0.2-0.2-0.4-0.4-0.6s-0.5-0.1-0.7,0c-0.5,0.3-1,0.4-1.5,0.3c-1.4-0.1-2.5-1.4-2.4-2.8
		c0-0.3,0.1-0.5,0.2-0.8c0.1-0.2,0-0.5-0.1-0.7c-0.1-0.2-0.4-0.3-0.6-0.4c-0.1,0-0.2,0-0.2,0c-1.9,0-3.7,0.9-4.8,2.5
		c-0.2,0.3-0.2,0.8,0.2,1s0.8,0.2,1-0.2c0.7-0.9,1.7-1.6,2.8-1.8c0,0.1,0,0.1,0,0.2C19.3,4,20.9,6,23.2,6.2c0.5,0,0.9,0,1.3-0.1
		c0,0.7-0.2,1.4-0.6,2c-0.2,0.4-0.1,0.8,0.3,1c0.1,0.1,0.3,0.1,0.4,0.1c0.3,0,0.5-0.1,0.6-0.4c0.5-0.9,0.8-1.9,0.8-3
		C26,5.5,26,5.1,25.9,4.8z"/>
	<path class="st0" d="M17.7,6.4c-0.4,0-0.9,0-1.3,0.1c-0.9-2.4-3.2-4.1-5.9-4.1c-3.5,0-6.3,2.8-6.3,6.3c0,0.4,0,0.9,0.1,1.3
		c-2.4,0-4.4,2-4.4,4.4c0,2.5,2,4.4,4.4,4.4c0.4,0,0.8-0.3,0.8-0.8s-0.3-0.8-0.8-0.8c-1.6,0-2.9-1.3-2.9-2.9c0-1.6,1.3-2.9,2.9-2.9
		c0.3,0,0.5,0,0.8,0.1c0.3,0.1,0.6,0,0.8-0.2s0.2-0.5,0.1-0.8c-0.3-0.6-0.4-1.3-0.4-1.9c0-2.6,2.1-4.8,4.8-4.8
		c2.2,0,4.1,1.5,4.6,3.6c0.1,0.2,0.2,0.4,0.4,0.5c0.2,0.1,0.4,0.1,0.6,0.1c0.5-0.2,1-0.3,1.5-0.3c2.6,0,4.8,2.1,4.8,4.8
		s-2.1,4.8-4.8,4.8c-0.4,0-0.8,0.3-0.8,0.8s0.3,0.8,0.8,0.8c3.5,0,6.3-2.8,6.3-6.3S21.2,6.4,17.7,6.4z"/>
	<path class="st0" d="M13.4,17.3H9.7l1.8-4.5c0.2-0.4,0-0.8-0.4-1c-0.4-0.2-0.8,0-1,0.4l-2.2,5.6C7.8,18,7.9,18.3,8,18.5
		s0.4,0.3,0.6,0.3h3.7l-1.5,4.1l-0.1-0.2c-0.2-0.3-0.7-0.5-1-0.2c-0.3,0.2-0.5,0.7-0.2,1l0.9,1.5c0,0,0,0,0,0
		c0.1,0.1,0.1,0.2,0.2,0.2c0,0,0,0,0,0c0.1,0.1,0.2,0.1,0.3,0.1c0,0,0,0,0,0h0h0h0c0,0,0.1,0,0.1,0c0.1,0,0.2,0,0.2-0.1c0,0,0,0,0,0
		l1.8-0.8c0.4-0.2,0.5-0.6,0.4-1c-0.2-0.4-0.6-0.5-1-0.4l-0.2,0.1l1.8-4.8c0.1-0.2,0.1-0.5-0.1-0.7C13.9,17.4,13.7,17.3,13.4,17.3z"
		/>
</g>
</svg>
