<?xml version="1.0" encoding="utf-8"?>
<!-- Generator: Adobe Illustrator 21.0.0, SVG Export Plug-In . SVG Version: 6.00 Build 0)  -->
<svg version="1.1" id="Layer_1" xmlns="http://www.w3.org/2000/svg" xmlns:xlink="http://www.w3.org/1999/xlink" x="0px" y="0px"
	 viewBox="0 0 24.4 16.8" style="enable-background:new 0 0 24.4 16.8;" xml:space="preserve">
<style type="text/css">
	.st0{fill:#FFFFFF;}
</style>
<path class="st0" d="M18,4c-0.4,0-0.9,0-1.3,0.1c-0.9-2.5-3.3-4.1-6-4.1C7.2,0,4.3,2.9,4.3,6.4c0,0.5,0,0.9,0.1,1.4
	C2,7.7,0,9.8,0,12.2c0,2.5,2,4.5,4.5,4.5H18c3.5,0,6.4-2.9,6.4-6.4S21.5,4,18,4z M18,15.3H4.5c-1.7,0-3-1.3-3-3s1.3-3,3-3
	c0.3,0,0.5,0,0.9,0.1c0.3,0.1,0.6,0,0.8-0.2c0.2-0.2,0.2-0.5,0.1-0.8C6,7.7,5.8,7.1,5.8,6.4c0-2.7,2.2-4.9,4.9-4.9
	c2.2,0,4.2,1.5,4.7,3.7c0.1,0.2,0.2,0.4,0.4,0.5c0.2,0.1,0.4,0.1,0.6,0.1c0.5-0.2,1-0.3,1.6-0.3c2.7,0,4.9,2.2,4.9,4.9
	S20.7,15.3,18,15.3z"/>
</svg>
